name C:\Users\u0101727\Documents\MyRepositories\upper-imu-dc\Results\main_tracking\Case_43\FLX01_linearAccelerations_bodyFrame.mot
datacolumns 4
datarows 58
range 0.51000000 1.08000000
endheader 
time	radius_imu_x	radius_imu_y	radius_imu_z	
          0.51000000	         -1.30306160	          9.85811145	          0.25123741	
          0.52000000	         -1.29610472	          9.86388294	          0.32311484	
          0.53000000	         -1.30547014	          9.86661315	          0.40356052	
          0.54000000	         -1.31750786	          9.87149437	          0.49813326	
          0.55000000	         -1.33227154	          9.87693923	          0.60538245	
          0.56000000	         -1.35141525	          9.88318526	          0.72340774	
          0.57000000	         -1.37605739	          9.89009947	          0.85099456	
          0.58000000	         -1.40690675	          9.89769852	          0.98669097	
          0.59000000	         -1.44445798	          9.90600751	          1.12879738	
          0.60000000	         -1.48898190	          9.91511434	          1.27568181	
          0.61000000	         -1.54037529	          9.92514446	          1.42579478	
          0.62000000	         -1.59809702	          9.93624738	          1.57766871	
          0.63000000	         -1.66118264	          9.94857882	          1.72996239	
          0.64000000	         -1.72831752	          9.96227248	          1.88139463	
          0.65000000	         -1.79800199	          9.97741576	          2.03065755	
          0.66000000	         -1.86871688	          9.99404052	          2.17641947	
          0.67000000	         -1.93900041	         10.01212501	          2.31740505	
          0.68000000	         -2.00747855	         10.03160107	          2.45251859	
          0.69000000	         -2.07288602	         10.05236306	          2.58094327	
          0.70000000	         -2.13407606	         10.07427370	          2.70216657	
          0.71000000	         -2.19002871	         10.09716427	          2.81593636	
          0.72000000	         -2.23988460	         10.12083130	          2.92219559	
          0.73000000	         -2.28300988	         10.14503484	          3.02105593	
          0.74000000	         -2.31912419	         10.16950531	          3.11289807	
          0.75000000	         -2.34834201	         10.19394625	          3.19840487	
          0.76000000	         -2.37102098	         10.21801852	          3.27830221	
          0.77000000	         -2.38791766	         10.24137981	          3.35371430	
          0.78000000	         -2.40003131	         10.26369709	          3.42603645	
          0.79000000	         -2.40831661	         10.28464248	          3.49647179	
          0.80000000	         -2.41426992	         10.30400968	          3.56717849	
          0.81000000	         -2.41874746	         10.32158341	          3.63916140	
          0.82000000	         -2.42293709	         10.33728576	          3.71399869	
          0.83000000	         -2.42737610	         10.35104757	          3.79218225	
          0.84000000	         -2.43221809	         10.36282657	          3.87365622	
          0.85000000	         -2.43722157	         10.37257728	          3.95795145	
          0.86000000	         -2.44166990	         10.38020406	          4.04408172	
          0.87000000	         -2.44466233	         10.38556678	          4.13108604	
          0.88000000	         -2.44533585	         10.38849093	          4.21835498	
          0.89000000	         -2.44296913	         10.38877853	          4.30572526	
          0.90000000	         -2.43701706	         10.38622459	          4.39348307	
          0.91000000	         -2.42708869	         10.38063446	          4.48228541	
          0.92000000	         -2.41293695	         10.37184943	          4.57312040	
          0.93000000	         -2.39449122	         10.35978707	          4.66737138	
          0.94000000	         -2.37182744	         10.34446994	          4.76670405	
          0.95000000	         -2.34501364	         10.32601118	          4.87255952	
          0.96000000	         -2.31394095	         10.30456537	          4.98552717	
          0.97000000	         -2.27817408	         10.28025495	          5.10483248	
          0.98000000	         -2.23679544	         10.25306353	          5.22797311	
          0.99000000	         -2.18846389	         10.22275996	          5.35097603	
          1.00000000	         -2.13174744	         10.18890158	          5.46940595	
          1.01000000	         -2.06539210	         10.15087608	          5.57940462	
          1.02000000	         -1.98848739	         10.10797012	          5.67848976	
          1.03000000	         -1.90059543	         10.05947258	          5.76606711	
          1.04000000	         -1.80175912	         10.00474458	          5.84313387	
          1.05000000	         -1.69244323	          9.94323907	          5.91143668	
          1.06000000	         -1.57325177	          9.87449563	          5.97299886	
          1.07000000	         -1.44482484	          9.79814009	          6.02982634	
          1.08000000	         -1.30780946	          9.71386327	          6.08357090	
